<svg xmlns="http://www.w3.org/2000/svg" width="250" height="239" viewBox="0 0 250 239" fill="none">
<path d="M 249.81,0 H 0.2 V 238.11 H 249.81 V 0 Z" fill="#F07033"/>
<path opacity="0.5" d="M 0.01,30.9 C 4.72,28.19 8.16,24.73 10.01,21.11 C 18.06,23.71 27.18,20.87 32.13,15.38 C 41.77,24.67 57.91,23.23 68.12,11.12 C 68.71,10.42 69.22,9.69 69.69,8.94 C 77.75,8.19 83.92,2.43 85.96,0 H 0 L 0.01,30.9 Z" fill="#FCE5D1"/>
<path d="M 249.81,87.75 C 240.09,85.31 231.95,89.84 227.58,101.32 C 218.61,95.09 208.72,101.41 205.81,111.18 C 197.88,108.49 190.61,112.43 188.37,119.09 H 249.91 L 249.81,87.75 Z" fill="#FEFFFE"/>
<path d="M 146.41,41.81 H 235.06 C 235.06,36.69 230.71,33.09 225.09,33.91 C 223.81,27.11 218.96,25.28 212.69,26.79 C 210.79,18.17 203.98,12.17 195.82,12.56 C 187.95,12.94 183.18,18.99 180.56,24.81 C 172.21,20.01 164.02,22.78 161.74,33.91 C 154.97,32.08 149.06,34.48 146.41,41.81 Z" fill="#FEFFFE"/>
<path d="M 8.15,75.93 H 38.81 C 37.82,70.71 33.88,62.39 28.13,62.63 C 24.78,62.77 21.26,66.05 20.01,70.09 C 14.1,68.77 9.07,70.76 8.15,75.93 Z" fill="#FEFFFE"/>
<path d="M 0,123.76 C 9.12,122.8 16.48,128.09 18.62,136.91 C 25.12,135.11 28.91,138.82 29.92,144.72 C 36.01,143.64 40.75,147.06 40.91,151.83 L 0,152.21 V 123.76 Z" fill="#FEFFFE"/>
<path d="M 123.92,0.78 L 125.34,10.24 L 136.99,12.16 L 125.06,13.91 L 123.92,24.9 L 122.23,12.67 L 111.1,11.73 L 122.23,9.59 L 123.92,0.78 Z" fill="#FEFFFE"/>
<path d="M 129.22,230.82 C 145.88,230.82 173.61,234.19 173.61,228.04 C 173.61,223.86 156.28,217.71 130.13,217.71 H 117.81 C 95.46,217.71 75.21,223.86 75.21,228.04 C 75.21,233.31 93.88,237.09 108.41,237.09 C 113.81,237.09 117.62,230.82 129.22,230.82 Z" fill="#E0521B"/>
<path d="M 85.79,59.71 C 75.21,62.42 70.11,72.15 70.71,79.06 C 71.72,90.81 81.83,94.61 89.08,92.61 L 105.01,67.73 C 100.81,61.29 94.48,57.85 85.79,59.71 Z" fill="#1A1A1A" stroke="#000000" stroke-width="1.08" stroke-miterlimit="10"/>
<path d="M 86.09,71.08 C 79.98,72.18 78.17,77.92 79.17,82.21 C 80.38,87.56 84.91,89.26 88.22,88.66 L 95.07,77.29 C 93.78,73.18 90.71,70.61 86.09,71.08 Z" fill="#EABBAE" stroke="#C98475" stroke-width="0.72" stroke-miterlimit="10"/>
<path d="M 177.15,67.67 C 187.09,70.12 190.72,78.82 189.91,85.66 C 188.59,96.71 179.84,102.07 172.06,99.93 L 158.71,74.91 C 163.92,68.07 169.02,66.06 177.15,67.67 Z" fill="#1A1A1A" stroke="#000000" stroke-width="1.08" stroke-miterlimit="10"/>
<path d="M 174.86,79.24 C 180.97,78.76 183.91,83.05 183.71,87.11 C 183.37,93.29 177.66,96.66 172.19,96.06 L 165.73,84.32 C 167.38,81.07 170.23,79.56 174.86,79.24 Z" fill="#EABBAE" stroke="#C98475" stroke-width="0.72" stroke-miterlimit="10"/>
<path d="M 126.91,57.01 C 112.07,57.01 103.93,61.23 92.13,78.76 C 82.02,94.27 78.32,112.47 87.97,122.46 C 96.04,130.84 108.36,133.93 127.81,135.11 C 144.01,136.11 159.94,132.16 167.34,123.41 C 175.82,113.25 170.72,94.91 164.86,80.78 C 158.71,66.06 147.62,57.01 126.91,57.01 Z" fill="#FEFFFE" stroke="#000000" stroke-width="1.08" stroke-miterlimit="10"/>
<path d="M 158.24,77.41 C 162.81,84.81 168.92,97.29 169.19,106.18 C 169.59,118.25 166.47,127.01 153.95,130.56 C 141.7,134.25 119.29,132.71 108.16,129.81 C 97.92,126.95 88.81,122.86 86.23,114.91 C 87.17,120.99 92.87,125.98 101.92,129.07 C 113.08,133.05 121.97,134.94 135.66,134.7 C 146.78,134.49 158.91,131.16 165.06,125.52 C 173.13,117.86 172.26,104.93 167.01,93.19 C 164.09,86.75 162.01,82.31 158.24,77.41 Z" fill="#E5E5E5"/>
<path d="M 112.14,79.7 C 104.27,78.62 95.15,89.8 90.12,98.09 C 85.12,106.24 91.06,111.85 98.62,112.93 C 105.81,113.91 108.76,109.01 114.42,102.83 C 120.01,96.71 123.92,85.72 117.46,81.46 C 115.64,80.24 114.22,79.94 112.14,79.7 Z" fill="#1A1A1A"/>
<path d="M 146.11,82.15 C 137.16,83.19 134.88,90.81 138.1,98.47 C 142.17,108.31 147.42,116.43 156.04,115.45 C 163.72,114.55 168.18,109.71 165.73,101.73 C 163.01,92.61 156.04,81.06 146.11,82.15 Z" fill="#1A1A1A"/>
<path d="M 111.2,81.52 C 104.47,81.91 100.94,88.92 100.94,93.73 C 100.94,99.11 104.91,102.01 109.77,101.73 C 115.83,101.39 120.03,93.91 119.9,89.04 C 119.76,84.62 116.24,81.24 111.2,81.52 Z" fill="#FEFFFE" stroke="#000000" stroke-width="0.72" stroke-miterlimit="10"/>
<path d="M 147.89,86.21 C 142.37,86.21 139.78,90.93 139.92,94.91 C 140.12,100.37 144.62,104.11 149.15,103.93 C 154.12,103.75 157.92,99.05 157.52,94.91 C 157.12,90.81 153.21,86.21 147.89,86.21 Z" fill="#FEFFFE" stroke="#000000" stroke-width="0.72" stroke-miterlimit="10"/>
<path d="M 111.07,87.33 C 107.19,87.33 105.48,90.63 105.55,93.37 C 105.68,96.83 108.43,98.65 110.95,98.53 C 114.35,98.35 116.44,95.09 116.37,92.43 C 116.24,89.66 114.35,87.33 111.07,87.33 Z" fill="#592A23" stroke="#000000" stroke-width="0.36" stroke-miterlimit="10"/>
<path d="M 147.55,90.04 C 143.61,89.78 141.7,93.13 141.77,95.64 C 141.9,98.93 144.62,100.71 147.22,100.53 C 150.47,100.29 152.34,97.41 152.21,94.91 C 152.01,92.31 150.09,90.22 147.55,90.04 Z" fill="#592A23" stroke="#000000" stroke-width="0.36" stroke-miterlimit="10"/>
<path d="M 111.27,89.72 C 110.01,89.72 109.23,90.87 109.23,91.85 C 109.23,93.01 110.21,93.67 111.14,93.61 C 112.42,93.55 113.16,92.31 113.16,91.33 C 113.16,90.39 112.35,89.66 111.27,89.72 Z" fill="black"/>
<path d="M 147.75,92.61 C 146.49,92.49 145.69,93.55 145.69,94.53 C 145.69,95.68 146.71,96.34 147.62,96.28 C 148.83,96.16 149.5,94.97 149.43,94.05 C 149.36,93.19 148.56,92.55 147.75,92.61 Z" fill="black"/>
<path d="M 119.96,108.43 C 120.43,114.15 122.44,119.09 127.31,119.09 C 132.11,119.09 133.92,113.43 134.66,111.61 C 129.42,111.61 128.11,107.95 127.44,107.15 C 126.37,108.37 124.02,109.41 119.96,108.43 Z" fill="#6B2A30"/>
<path d="M 120.63,108.61 C 122.04,110.11 126.17,110.17 127.71,107.15 C 129.19,109.81 133.32,111.03 137.06,110.11 C 139.65,109.41 140.83,106.91 140.83,106.91 C 139.85,110.73 137.73,113.17 134.52,113.05 C 131.07,112.93 129.22,110.43 127.91,109.11 C 126.17,110.81 121.84,111.15 119.36,109.75 C 117.01,108.49 116.24,107.09 116.04,106.06 C 116.98,107.21 118.09,108.25 120.63,108.61 Z" fill="#E5E5E5"/>
<path d="M 128.11,99.05 C 124.05,98.75 123.31,99.91 123.31,101.61 C 123.31,103.75 125.73,104.73 128.31,104.73 C 131.44,104.73 133.32,103.15 133.32,101.45 C 133.32,99.91 131.64,99.23 128.11,99.05 Z" fill="#522120" stroke="#000000" stroke-width="0.36" stroke-miterlimit="10"/>
<path d="M 120.63,120.13 C 121.91,122.22 123.72,122.86 126.71,122.68 C 129.29,122.56 130.67,121.1 131.14,120.01 C 129.89,120.92 128.72,121.46 126.64,121.34 C 123.92,121.22 122.31,120.62 120.63,120.13 Z" fill="#E5E5E5"/>
<path d="M 119.03,71.74 C 116.78,66.72 111.07,66.06 106.01,73.84 C 105.21,75.11 105.68,74.93 106.82,74.3 C 110.66,72.09 113.75,70.71 119.03,71.74 Z" fill="#1A1A1A"/>
<path d="M 142.03,73.54 C 145.16,69.12 149.96,68.21 154.63,77.23 C 155.23,78.46 154.69,78.34 153.75,77.35 C 150.77,74.53 148.02,72.96 142.03,73.54 Z" fill="#1A1A1A"/>
<path d="M 148.16,133.93 C 155.03,136.85 159.86,143.35 164.73,155.71 C 167.74,158.48 173.13,163.48 175.55,176.75 C 180.15,181.01 182.97,184.71 182.1,191.61 C 181.56,196.11 178.64,198.06 177.97,198.76 C 176.62,200.36 174.81,199.82 173.74,199.34 C 172.19,200.48 169.71,199.64 168.21,197.41 C 167.01,195.55 167.81,193.97 168.01,192.65 C 166.07,189.73 164.93,185.17 167.01,181.25 C 165.13,180.55 161.13,179.22 158.85,177.21 C 157.92,183.05 159.27,190.91 159.27,197.09 C 159.27,204.81 155.23,212.14 150.43,216.34 C 154.96,217.04 156.44,219.43 158.39,220.93 C 161.81,222.01 163.72,223.41 163.22,226.52 C 162.61,230.02 158.12,230.66 155.84,229.52 C 153.75,231.06 150.84,231.36 148.83,229.96 C 146.91,231.76 143.21,231.82 141.13,230.6 C 136.13,232.06 130.23,230.14 130.23,224.84 C 130.23,220.93 133.75,213.6 132.04,206.21 C 131.31,203.67 130.03,201.16 129.49,200.3 C 124.93,200.84 120.03,200.42 118.09,199.94 C 114.96,204.29 116.04,214.12 118.09,221.83 C 119.7,228.28 115.37,232.06 108.16,231.7 C 106.28,231.64 105.14,231.24 104.27,230.42 C 101.99,231.82 98.05,231.24 96.61,229.52 C 93.21,230.94 87.43,230.26 87.03,225.7 C 86.76,222.45 89.92,220.93 92.27,220.63 C 93.81,218.63 96.3,217.22 99.83,217.04 C 94.18,212.62 90.66,206.09 90.66,197.15 C 90.66,191.19 91.26,183.41 92.27,177.73 L 106.95,131.92 C 112.54,133.69 122.71,135.17 129.62,135.17 C 136.4,135.17 142.77,134.76 148.16,133.93 Z" fill="#3A3B3B" stroke="black" stroke-width="1.08" stroke-miterlimit="10"/>
<path d="M 147.75,139.91 C 151.81,142.83 156.04,149.06 157.92,156.72 C 161.07,158.9 167.01,163.96 169.99,173.28 C 171.19,177.21 170.12,178.43 167.84,178.31 C 164.93,178.13 161.94,174.63 160.13,169.01 C 158.12,162.42 155.77,160.18 153.75,158.64 C 151.17,156.64 147.62,149.24 147.75,139.91 Z" fill="#494A4A"/>
<path d="M 109.97,132.62 C 104.13,133.26 93.74,138.82 88.04,142.61 C 83.91,139.35 77.73,138.27 72.45,137.63 C 71.65,131.14 67.92,127.45 64.05,129.05 C 62.04,129.87 61.03,131.14 60.16,132.81 L 57.04,139.05 L 58.72,148.76 C 65.05,149.12 73.19,159.22 84.45,161.22 C 91.33,162.44 95.13,160.12 96.94,158.76 L 109.97,132.62 Z" fill="#3A3B3B" stroke="black" stroke-width="1.08" stroke-miterlimit="10"/>
<path d="M 100.07,156.64 C 94.41,163.54 90.12,178.31 93.34,185.71 C 97.91,196.63 109.16,200.6 124.05,200.6 C 138.94,200.6 156.04,192.71 158.32,180.85 C 159.66,173.76 155.37,162.44 153.42,159.14 C 145.41,156.22 139.51,142.09 124.62,142.09 C 113.82,142.09 106.55,150.86 100.07,156.64 Z" fill="#FEFFFE" stroke="black" stroke-width="0.72" stroke-miterlimit="10"/>
<path d="M 141.13,151.7 C 140.12,154.41 139.38,157.94 143.61,160.92 C 150.23,165.62 151.71,180.71 143.61,188.43 C 137.22,194.61 126.84,194.91 117.01,194.91 C 104.47,194.91 94.48,187.91 92.13,176.01 C 91.73,182.73 93.94,189.85 101.01,195.25 C 107.02,199.9 114.09,200.84 120.17,201.14 C 129.69,201.62 141.83,198.44 148.96,193.25 C 156.04,188.03 158.99,182.93 157.72,174.06 C 156.71,166.66 153.95,160.98 152.48,158.64 C 148.75,157.24 145.63,153.89 141.13,151.7 Z" fill="#E5E5E5"/>
<path d="M 132.98,201.22 C 136.64,202.04 147.62,200.14 149.43,205.63 C 151.04,210.82 147.04,216.22 145.63,218.29 C 148.69,217.22 151.44,216.98 153.95,218.75 C 151.24,217.99 148.62,217.75 146.11,218.69 C 148.83,218.99 152.51,219.11 155.77,221.89 C 157.65,223.53 159.93,223.13 160.67,222.73 C 159.12,224.81 156.11,224.75 154.02,223.25 C 152.01,221.83 150.23,221.83 149.09,222.01 C 151.04,222.45 153.82,223.53 155.17,225.76 C 152.95,225.46 150.43,224.49 148.69,223.85 C 147.04,223.19 144.62,223.47 143.21,224.93 C 141.77,226.44 137.24,227.04 134.72,225.76 C 132.71,224.75 131.64,223.13 131.64,221.55 C 132.71,216.92 136.84,207.81 132.98,201.22 Z" fill="#3A3B3B"/>
<path d="M 94.48,190.61 C 93.61,198.94 94.21,207.81 102.72,217.06 C 99.13,216.14 96.11,216.44 93.47,218.75 C 95.15,217.93 97.73,217.45 99.81,218.21 C 97.49,218.27 93.94,218.99 91.13,221.33 C 89.45,222.73 89.25,224.05 89.72,224.93 C 90.12,223.71 91.33,222.45 92.94,222.21 C 94.21,222.01 95.49,222.21 96.43,222.65 C 94.68,223.05 93.27,223.91 92.47,225.22 C 94.28,224.25 96.76,223.35 99.04,223.71 C 97.49,224.31 96.29,225.46 95.62,226.72 C 97.37,225.36 99.72,224.43 101.78,224.79 C 102.86,225.7 104.27,226.36 106.01,226.24 C 108.69,226.06 111.74,226.18 113.08,224.37 C 113.62,221.93 111.41,219.11 110.81,210.02 C 110.47,204.69 107.62,200.14 103.86,197.75 C 99.23,194.91 96.74,193.53 94.48,190.61 Z" fill="#3A3B3B"/>
<path d="M 170.72,189.73 C 171.06,192.29 170.79,195.11 169.12,197.15" stroke="black" stroke-width="0.72" stroke-miterlimit="10"/>
<path d="M 174.85,190.31 C 175.25,193.09 174.71,195.97 173.13,197.91" stroke="black" stroke-width="0.72" stroke-miterlimit="10"/>
<path d="M 61.03,130.22 C 60.16,122.04 57.78,117.48 55.63,112.09 C 53.15,105.65 53.42,100.19 54.36,93.73" stroke="black" stroke-width="0.72" stroke-miterlimit="10"/>
<path d="M 51.95,94.61 C 50.27,94.61 49.06,93.91 48.72,92.93 L 50.81,87.75 H 56.1 L 58.65,92.43 C 58.92,93.85 57.85,94.61 56.1,94.61 H 51.95 Z" fill="#EA5555" stroke="black" stroke-width="0.72" stroke-miterlimit="10"/>
<path d="M 53.15,24.08 C 37.43,24.08 26.04,38.09 26.04,53.83 C 26.04,69.96 37.03,87.33 53.15,87.33 C 66.91,87.33 79.64,72.78 79.64,54.27 C 79.64,37.67 68.92,24.08 53.15,24.08 Z" fill="#EA5555" stroke="black" stroke-width="0.72" stroke-miterlimit="10"/>
<path d="M 66.11,28.19 C 72.72,33.09 76.25,41.21 76.25,50.02 C 76.25,65.82 63.86,80.12 51.68,80.12 C 44.99,80.12 39.71,78.11 35.08,73.76 C 39.78,81.42 46.71,86.46 54.02,86.46 C 66.71,86.46 78.63,71.74 78.63,55.19 C 78.63,43.26 73.73,33.43 66.11,28.19 Z" fill="#D3393F"/>
<path d="M 46.14,32.05 C 40.99,32.91 34.81,40.21 34.81,44.36 C 34.81,46.64 35.89,47.54 37.53,47.54 C 41.86,47.54 48.52,39.82 48.52,35.07 C 48.52,33.03 47.58,31.81 46.14,32.05 Z" fill="#F2969B"/>
<path d="M 33.67,52.73 C 33.34,54.73 34.01,55.71 35.22,55.71 C 36.96,55.71 37.63,53.71 37.5,52.01 C 37.36,50.5 36.42,50.02 35.42,50.26 C 34.48,50.5 33.88,51.41 33.67,52.73 Z" fill="#F2969B"/>
<path d="M 57.91,131.08 C 60.63,129.62 64.93,131.02 66.04,134.95 C 66.71,137.55 64.19,138.15 63.32,138.03 C 64.73,138.63 65.74,139.11 65.13,141.11 C 64.53,143.11 63.66,143.11 63.66,143.11 C 64.46,144.43 64.66,145.83 62.92,147.23 C 60.77,148.94 56.17,148.64 53.76,145.11 C 50.84,140.85 52.18,132.04 57.91,130.04" fill="#302F2F" stroke="black" stroke-width="1.08" stroke-miterlimit="10"/>
<path d="M 58.45,135.01 C 60.13,135.65 61.84,136.05 63.59,136.05" stroke="black" stroke-width="0.72" stroke-miterlimit="10"/>
<path d="M 58.12,139.91 C 59.53,140.51 61.17,140.75 62.78,140.57" stroke="black" stroke-width="0.72" stroke-miterlimit="10"/>
<path d="M 58.12,145.05 C 59.12,145.65 60.23,145.77 61.44,145.65" stroke="black" stroke-width="0.72" stroke-miterlimit="10"/>
<path d="M 61.51,149.8 C 59.26,157.14 57.31,164.04 60.37,170.49" stroke="black" stroke-width="0.72" stroke-miterlimit="10"/>
</svg>